<svg width="144" height="179" viewBox="0 0 144 179" fill="none" xmlns="http://www.w3.org/2000/svg">
<path d="M71.0387 95.6129C78.1394 99.7125 80.5378 108.852 76.3957 116.026C72.2536 123.201 63.1394 125.693 56.0387 121.594C48.938 117.494 26.3542 96.7006 30.4963 89.5262C34.6385 82.3518 63.938 91.5133 71.0387 95.6129Z" fill="white"/>
<path d="M38 70.5486C38 78.7478 31.2843 85.3945 23 85.3945C14.7157 85.3945 8 78.7478 8 70.5486C8 62.3494 14.7157 32.3945 23 32.3945C31.2843 32.3945 38 62.3494 38 70.5486Z" fill="white"/>
<path d="M57.8213 45.0578C50.7206 49.1574 41.6064 46.6648 37.4643 39.4904C33.3222 32.316 35.7206 23.1766 42.8213 19.077C49.922 14.9774 79.2215 5.81599 83.3636 12.9904C87.5058 20.1648 64.922 40.9582 57.8213 45.0578Z" fill="white"/>
<path d="M95.8569 40.7983C88.7562 36.6987 86.3578 27.5593 90.4999 20.3849C94.6421 13.2105 103.756 10.7179 110.857 14.8175C117.958 18.9171 140.541 39.7105 136.399 46.8849C132.257 54.0593 102.958 44.8979 95.8569 40.7983Z" fill="white"/>
<path d="M72.8606 82.4037C65.7599 78.3041 63.3615 69.1648 67.5036 61.9904C71.6457 54.816 80.7599 52.3234 87.8606 56.423C94.9613 60.5226 117.545 81.316 113.403 88.4904C109.261 95.6648 79.9613 86.5033 72.8606 82.4037Z" fill="white"/>
<path d="M105.899 107.468C105.899 99.2688 112.615 92.6221 120.899 92.6221C129.184 92.6221 135.899 99.2688 135.899 107.468C135.899 115.667 129.184 145.622 120.899 145.622C112.615 145.622 105.899 115.667 105.899 107.468Z" fill="white"/>
<path d="M86.078 132.959C93.1787 128.859 102.293 131.352 106.435 138.526C110.577 145.701 108.179 154.84 101.078 158.94C93.9773 163.039 64.6778 172.201 60.5356 165.026C56.3935 157.852 78.9773 137.058 86.078 132.959Z" fill="white"/>
<path d="M48.0424 137.218C55.1431 141.318 57.5415 150.457 53.3993 157.632C49.2572 164.806 40.1431 167.299 33.0424 163.199C25.9417 159.1 3.35786 138.306 7.5 131.132C11.6421 123.957 40.9417 133.119 48.0424 137.218Z" fill="white"/>
</svg>
